 <svg  version="1.0" xmlns="http://www.w3.org/2000/svg"  width="300.000000pt" height="58.000000pt" viewBox="0 0 300.000000 58.000000"  preserveAspectRatio="xMidYMid meet">  <g transform="translate(0.000000,58.000000) scale(0.100000,-0.100000)" fill="#ffffff" stroke="none"> <path d="M135 570 c-86 -13 -125 -60 -125 -152 0 -47 5 -62 27 -89 15 -17 43 -38 62 -46 37 -16 149 -19 162 -6 15 15 23 73 10 73 -6 0 -11 -6 -11 -14 0 -45 -70 -60 -129 -28 -82 44 -97 181 -26 228 55 36 155 12 155 -38 0 -11 4 -16 10 -13 14 9 12 75 -2 79 -28 9 -95 12 -133 6z"/> <path d="M2419 543 c-56 -151 -103 -252 -122 -261 -18 -9 -13 -11 33 -11 40 0 51 2 38 9 -15 9 -15 13 -1 50 16 39 17 40 64 40 44 0 48 -2 58 -31 6 -18 11 -40 11 -50 0 -17 9 -19 108 -18 74 0 100 3 85 9 -22 9 -23 15 -23 116 0 90 3 109 18 120 15 12 9 13 -40 14 -32 0 -58 -4 -58 -10 0 -5 7 -10 15 -10 24 0 17 -223 -6 -228 -28 -5 -44 22 -100 158 -29 71 -57 130 -61 130 -5 0 -13 -12 -19 -27z m32 -98 c18 -50 16 -55 -21 -55 -15 0 -29 2 -32 5 -6 6 24 95 32 95 3 0 12 -20 21 -45z"/> <path d="M1870 474 c0 -39 -3 -99 -6 -133 -6 -55 -9 -61 -30 -61 -29 0 -39 16 -94 148 -24 56 -46 102 -50 102 -3 0 -28 -51 -55 -112 -58 -136 -61 -140 -94 -136 l-26 3 -3 113 c-2 95 0 112 13 112 8 0 15 5 15 10 0 6 -22 10 -50 10 -27 0 -50 -4 -50 -10 0 -5 5 -10 10 -10 6 0 10 -43 10 -110 0 -93 -3 -110 -17 -119 -13 -8 12 -10 91 -11 90 0 107 2 94 13 -14 10 -14 16 -2 45 13 29 18 32 55 32 36 0 41 -3 55 -35 8 -20 12 -40 9 -45 -4 -6 34 -10 97 -9 68 0 96 3 82 9 -18 7 -23 20 -29 85 -4 42 -5 78 -2 81 2 2 44 -36 92 -86 49 -49 95 -90 102 -90 10 0 13 27 13 116 0 100 3 119 18 130 15 12 10 13 -36 14 -33 0 -51 -4 -47 -10 3 -5 12 -10 20 -10 10 0 14 -21 17 -81 2 -44 1 -82 -1 -84 -2 -2 -48 42 -102 98 l-99 101 0 -70z m-171 -45 c16 -46 14 -49 -20 -49 -24 0 -30 3 -25 16 3 9 9 27 12 40 8 33 20 30 33 -7z"/> <path d="M300 520 c0 -5 7 -10 15 -10 12 0 15 -19 15 -110 0 -93 -3 -110 -17 -119 -14 -8 -2 -10 47 -10 47 0 59 3 44 9 -17 7 -23 19 -26 57 -3 26 -3 51 -1 56 2 4 33 7 69 7 l64 0 0 -55 c0 -41 -4 -56 -17 -64 -13 -8 17 -10 107 -10 85 0 118 3 103 9 -19 8 -23 17 -23 55 0 37 3 45 19 45 10 0 31 -18 47 -41 43 -63 57 -69 158 -69 85 0 89 1 68 16 -20 14 -22 23 -22 115 0 79 3 101 15 105 31 12 13 24 -35 24 -27 0 -50 -4 -50 -10 0 -5 7 -10 15 -10 13 0 15 -17 13 -112 -3 -106 -4 -113 -24 -116 -23 -3 -72 33 -105 79 l-20 29 20 26 c21 27 27 60 13 81 -13 21 -62 33 -130 33 -58 -1 -65 -2 -49 -14 14 -11 17 -30 17 -125 l0 -112 -32 3 -33 3 -3 109 c-2 94 0 110 15 122 16 12 11 13 -39 14 -32 0 -58 -4 -58 -10 0 -5 7 -10 15 -10 11 0 15 -12 15 -45 l0 -45 -70 0 -70 0 7 43 c3 23 13 47 22 54 13 10 6 12 -41 13 -32 0 -58 -4 -58 -10z m440 -30 c36 -36 18 -90 -30 -90 -30 0 -30 1 -30 55 0 48 2 55 20 55 11 0 29 -9 40 -20z"/> <path d="M1035 506 c-14 -14 -25 -30 -25 -35 0 -30 24 -61 63 -84 48 -28 62 -56 43 -82 -18 -25 -78 -16 -91 13 -12 27 -25 29 -25 3 0 -42 10 -51 62 -51 59 0 86 13 99 47 15 40 -6 78 -62 113 -27 16 -49 36 -49 43 0 40 68 51 94 15 l16 -23 -2 30 c-3 28 -6 30 -50 33 -40 3 -52 -1 -73 -22z"/> <path d="M1180 502 c0 -20 3 -23 12 -14 7 7 29 12 50 12 l38 0 0 -99 c0 -92 -2 -101 -22 -115 -21 -15 -19 -16 47 -15 59 0 66 2 43 11 l-28 10 0 104 0 104 40 0 c22 0 40 -4 40 -10 0 -5 5 -10 10 -10 6 0 10 11 10 24 l0 25 -120 0 -120 0 0 -27z"/> <path d="M2715 520 c3 -5 13 -10 21 -10 22 0 20 -202 -2 -224 -14 -15 -8 -16 70 -16 96 0 126 9 161 46 21 22 25 37 25 86 0 69 -22 99 -86 117 -50 14 -197 15 -189 1z m187 -36 c32 -17 52 -72 44 -119 -10 -49 -49 -77 -104 -73 l-45 3 -2 100 c-1 55 0 104 3 108 5 10 69 -2 104 -19z"/> <path d="M837 170 c-3 -8 -10 -42 -15 -75 -6 -33 -13 -68 -17 -77 -5 -13 -2 -15 14 -11 11 3 19 8 17 12 -2 3 -1 24 3 46 l7 40 24 -47 c13 -27 27 -48 30 -48 3 0 16 21 28 46 13 26 25 44 27 42 4 -4 10 -37 14 -79 1 -4 12 -9 25 -11 22 -4 22 -3 10 20 -7 13 -15 51 -19 83 -4 33 -10 59 -14 59 -4 0 -18 -23 -31 -51 -13 -28 -28 -53 -32 -55 -5 -3 -22 23 -37 58 -18 38 -31 57 -34 48z"/> <path d="M1090 169 c0 -5 5 -9 10 -9 13 0 13 -133 1 -146 -6 -5 3 -9 24 -9 21 0 31 4 25 9 -13 13 -13 133 0 141 20 12 9 21 -25 22 -19 1 -35 -3 -35 -8z"/> <path d="M1270 160 c-28 -28 -25 -37 16 -76 24 -21 34 -38 31 -48 -8 -21 -44 -20 -55 0 -6 10 -12 13 -16 6 -8 -13 20 -42 42 -42 30 0 62 30 62 56 0 17 -9 30 -30 42 -34 19 -45 41 -30 56 7 7 17 7 31 -2 24 -15 34 -10 26 13 -9 21 -53 19 -77 -5z"/> <path d="M1462 164 c-32 -22 -27 -48 15 -81 25 -21 34 -35 30 -46 -8 -21 -46 -22 -53 -2 -9 21 -24 19 -24 -4 0 -28 53 -38 85 -17 38 25 33 62 -10 87 -19 12 -35 27 -35 35 0 21 27 29 45 14 18 -15 30 -7 22 15 -8 19 -46 19 -75 -1z"/> <path d="M1620 171 c0 -4 5 -12 11 -18 6 -6 9 -38 7 -76 -3 -65 -3 -66 25 -70 19 -2 24 0 17 7 -14 14 -13 146 2 146 6 0 8 3 4 7 -10 10 -66 13 -66 4z"/> <path d="M1809 165 c-32 -17 -54 -66 -45 -100 9 -34 51 -60 99 -60 74 0 117 94 65 142 -31 28 -86 37 -119 18z m82 -24 c16 -13 23 -29 23 -54 0 -43 -18 -67 -50 -67 -58 0 -89 92 -42 124 29 21 41 20 69 -3z"/> <path d="M2140 170 c0 -5 4 -10 9 -12 13 -5 26 -98 13 -98 -5 0 -33 25 -60 55 -28 30 -54 55 -59 55 -4 0 -8 -26 -9 -59 -1 -32 -4 -69 -7 -83 -6 -22 -4 -25 16 -21 22 4 23 8 16 51 -4 26 -5 49 -3 51 3 3 28 -19 57 -47 29 -29 58 -52 65 -52 8 0 12 21 12 69 0 38 2 76 5 84 4 10 -2 14 -25 15 -16 0 -30 -3 -30 -8z"/> <path d="M699 105 c-3 -2 -108 -5 -235 -6 -248 -1 -328 -11 -175 -22 152 -11 419 -8 427 4 6 11 -9 33 -17 24z"/> <path d="M2287 79 c4 -12 11 -18 20 -15 8 3 118 6 244 6 145 0 228 4 224 10 -3 5 31 11 87 13 51 1 -58 4 -244 5 -335 2 -336 2 -331 -19z"/> </g> </svg> 